<svg t="1698163990249" class="icon" viewBox="0 0 1024 1024" version="1.1" xmlns="http://www.w3.org/2000/svg" p-id="8253" width="48" height="48"><path d="M537.6 267.2c-73.6 0-134.4-60.8-134.4-134.4S465.6 0 537.6 0 672 60.8 672 134.4c0 75.2-60.8 132.8-134.4 132.8z m-280 105.6c-67.2 0-121.6-54.4-121.6-121.6 0-67.2 54.4-121.6 121.6-121.6s121.6 54.4 121.6 121.6-54.4 121.6-121.6 121.6zM137.6 646.4c-60.8 0-108.8-48-108.8-108.8s48-108.8 108.8-108.8 108.8 48 108.8 108.8c-1.6 60.8-49.6 108.8-108.8 108.8z m120 273.6c-51.2 0-89.6-41.6-89.6-89.6 0-51.2 41.6-89.6 89.6-89.6s89.6 41.6 89.6 89.6c0 48-41.6 86.4-89.6 89.6z m280 102.4c-44.8 0-80-35.2-80-80s35.2-80 80-80 80 35.2 80 80-35.2 80-80 80z m288-134.4c-35.2 0-64-28.8-64-64s28.8-64 64-64 64 28.8 64 64c-1.6 35.2-30.4 64-64 64zM942.4 592c-28.8 0-51.2-22.4-51.2-51.2 0-28.8 22.4-51.2 51.2-51.2 28.8 0 51.2 22.4 51.2 51.2 3.2 28.8-22.4 51.2-51.2 51.2zM784 254.4c0-22.4 19.2-41.6 41.6-41.6s41.6 19.2 41.6 41.6-19.2 41.6-41.6 41.6c-9.6 0-22.4-3.2-28.8-12.8-6.4-6.4-12.8-16-12.8-28.8z" fill="#ffffff" p-id="8254"></path></svg>