<svg t="1698375476368" class="icon" viewBox="0 0 1024 1024" version="1.1" xmlns="http://www.w3.org/2000/svg" p-id="12579" width="64" height="64"><path d="M512 0C229.376 0 0 229.376 0 512s229.376 512 512 512 512-229.376 512-512S794.624 0 512 0z m194.56 563.2h-143.36v143.36c0 28.16-23.04 51.2-51.2 51.2s-51.2-23.04-51.2-51.2v-143.36H317.44c-28.16 0-51.2-23.04-51.2-51.2s23.04-51.2 51.2-51.2h143.36V317.44c0-28.16 23.04-51.2 51.2-51.2s51.2 23.04 51.2 51.2v143.36h143.36c28.16 0 51.2 23.04 51.2 51.2s-23.04 51.2-51.2 51.2z" fill="#bbbbbb" p-id="12580"></path></svg>