<svg t="1698378517839" class="icon" viewBox="0 0 1024 1024" version="1.1" xmlns="http://www.w3.org/2000/svg" p-id="18791" width="48" height="48"><path d="M896 32H128a96 96 0 0 0-96 96v512a96 96 0 0 0 96 96h768a96 96 0 0 0 96-96V128a96 96 0 0 0-96-96z m-207.68 379.52l-320 192A32 32 0 0 1 320 576V192a32 32 0 0 1 48.32-27.52l320 192a32 32 0 0 1 0 55.04zM224 928v-96a32 32 0 0 0-64 0v32H64a32 32 0 0 0 0 64h96v32a32 32 0 0 0 64 0zM960 864H288v64h672a32 32 0 0 0 0-64z" fill="#48a2d0" p-id="18792" data-spm-anchor-id="a313x.search_index.0.i14.20d13a81LUefc1" class="selected"></path></svg>